<?xml version="1.0" encoding="UTF-8" standalone="no"?>
<svg
   viewBox="0 0 212.39861 189.47559"
   version="1.1"
   id="svg2"
   sodipodi:docname="flask-icon.svg"
   inkscape:version="1.3.2 (091e20ef0f, 2023-11-25, custom)"
   width="191.15875"
   height="170.52803"
   xmlns:inkscape="http://www.inkscape.org/namespaces/inkscape"
   xmlns:sodipodi="http://sodipodi.sourceforge.net/DTD/sodipodi-0.dtd"
   xmlns="http://www.w3.org/2000/svg"
   xmlns:svg="http://www.w3.org/2000/svg">
  <defs
     id="defs2">
    <clipPath
       clipPathUnits="userSpaceOnUse"
       id="clipPath3">
      <rect
         style="fill:#000000;fill-opacity:0.508266;stroke-width:1.00285"
         id="rect4"
         width="211.94618"
         height="177.94821"
         x="1.7000296"
         y="1.383319" />
    </clipPath>
  </defs>
  <sodipodi:namedview
     id="namedview2"
     pagecolor="#ffffff"
     bordercolor="#000000"
     borderopacity="0.31764706"
     inkscape:showpageshadow="2"
     inkscape:pageopacity="0.0"
     inkscape:pagecheckerboard="true"
     inkscape:deskcolor="#d1d1d1"
     inkscape:zoom="2.9847826"
     inkscape:cx="97.327021"
     inkscape:cy="84.595776"
     inkscape:window-width="1920"
     inkscape:window-height="1009"
     inkscape:window-x="0"
     inkscape:window-y="0"
     inkscape:window-maximized="1"
     inkscape:current-layer="svg2"
     showborder="true"
     labelstyle="default"
     inkscape:clip-to-page="false" />
  <path
     d="M 69.124,157.319 C 61.842,151.591 54.074,146.099 48.766,138.367 37.596,124.73 28.996,108.942 23.116,92.35 19.563,81.562 18.346,69.995 13.765,59.623 8.973,52.09 14.586,43.855 22.838,41.461 c 3.673,-0.705 10.133,-4.17 2.336,-1.694 -6.99,5.129 -7.667,-4.655 -0.5,-5.275 4.893,-0.65 6.694,-4.655 5.02,-8.26 -5.25,-3.425 12.735,-7.188 3.685,-12.298 -9.427,-10.17 13.187,-12.129 7.607,-0.578 -1.335,8.882 15.802,-1.628 11.826,8.63 4.04,4.925 15.133,1.12 14.858,8.03 5.887,0.405 7.908,5.359 13.434,5.739 5.728,2.586 16.11,4.625 18.06,11.079 -5.683,4.499 -18.841,-9.293 -19.473,3.16 1.716,18.396 1.279,37.347 8.01,54.865 3.183,10.608 10.9,18.958 17.87,27.22 6.67,8.091 15.703,13.787 24.91,18.583 8.076,3.81 16.783,6.335 25.585,7.92 3.57,-2.73 9.873,-12.882 15.443,-8.601 0.264,4.81 -11.054,10.055 -0.533,9.523 6.178,-1.864 10.464,4.778 15.551,-1.213 4.687,5.552 19.482,-3.547 16.147,7.802 -4.51,2.91 -11.087,1.151 -15.604,5.154 -7.447,-3.72 -13.377,3.328 -21.622,2.437 -9.156,1.64 -18.471,2.302 -27.755,2.316 -15.229,-1.203 -30.781,-1.71 -45.27,-7.013 -8.16,-2.372 -16.126,-7.019 -23.299,-11.668 z m 12.862,5.573 c 7.97,3.446 15.763,7.079 24.497,8.174 13.857,1.928 28.166,4.892 42.073,2.188 -6.294,-2.842 -12.801,1.107 -19.071,-2.032 -7.52,1.618 -15.59,-0.413 -23.236,-1.412 -8.694,-3.873 -18.076,-6.536 -26.218,-11.562 -10.173,-3.716 5.262,4.765 8.009,5.452 6.36,3.61 -6.993,-1.85 -8.876,-3.351 -5.326,-2.988 -6.005,-2.364 -0.527,0.67 1.103,0.646 2.193,1.323 3.35,1.873 z M 66.821,152.175 c 7.723,2.86 -0.034,-5.431 -3.572,-4.95 -1.568,-2.72 -5.99,-4.438 -2.871,-5.899 -5.612,1.948 -5.879,-7.408 -8.516,-6.071 -5.937,-1.875 -2.31,-8.515 -9.382,-12.593 -0.646,-4.297 -7.026,-8.024 -9.06,-14.506 -0.9,-3.318 -7.21,-12.847 -3.333,-3.979 3.3,8.538 9.106,15.849 13.938,23.152 3.752,6.953 8.183,14.22 15.016,18.558 2.304,2.21 4.528,5.595 7.78,6.288 z M 44.574,127.749 c 0.27,-1.167 1.412,2.524 0,0 z m 31.496,27.855 c 1.71,-0.766 -2.459,-0.965 0,0 z m 4.192,1.53 c -0.434,-2.113 -1.913,1.18 0,0 z m 5.248,2.188 c 2.498,-2.379 -3.85,-1.5 0,0 z m 8.994,5.013 c 1.518,-2.244 -4.859,-0.847 0,0 z m -17.27,-12.04 c 3.88,-2.51 -5.013,-0.034 0,0 z m 3.936,1.963 c -0.11,-1.327 -1.403,0.595 0,0 z m 19.674,12.28 c 3.163,1.996 18.47,4.375 8.885,0.819 -1.604,0.338 -17.772,-4.574 -8.885,-0.819 z M 69.61,142.212 c -0.307,-1.33 -4.91,-1.47 0,0 z m 9.16,5.338 c 2.383,-1.662 -4.948,-1.282 0,0 z m 7.704,4.724 c 3.42,-1.29 -5.55,-1.296 0,0 z m -20.59,-14.12 c 3.71,2.845 14.967,0.364 5.683,-1.7 -4.226,-2.252 -13.749,-3.794 -7.258,1.358 l 1.574,0.341 z m 25.808,15.751 c 1.546,-2.634 -6.483,-1.504 0,0 z m -7.843,-6.233 c 9.076,2.568 -7.631,-5.739 -2.239,-0.944 l 1.195,0.54 z m 15.724,9.088 c 8.595,0.082 -7.763,-1.185 0,0 z M 62.576,133.18 c -0.336,-1.6 -2.12,0.135 0,0 z m 51.536,31.735 c 0.229,-2.89 -2.805,2.152 0,0 z M 77.243,142.163 c -0.52,-1.523 -2.685,-0.063 0,0 z m -13.852,-9.987 c 4.935,-0.296 -6.755,-2.174 0,0 z m -16.41,-10.607 c -0.614,-2.365 -5.369,-4.252 0,0 z m 43.08,27.34 c -0.904,-1.031 -0.425,0.225 0,0 z m 26.814,16.454 c -0.086,-1.575 -1.46,0.596 0,0 z M 87.688,146.458 c 0.483,-2.03 -4.208,-0.615 0,0 z m -19.976,-12.66 c 3.67,-0.393 -5.88,-2.482 0,0 z m 33.791,20.997 c 5.72,-2.266 -5.575,-1.106 0,0 z M 83.926,142.864 c 6.593,0.85 -7.844,-4.485 -1.446,-0.478 z m 22.913,14.088 c 6.155,-3.68 4.126,8.617 10.443,1.039 6.23,-4.55 -5.381,5.624 2.298,0.811 5.554,-3.714 13.757,1.76 18.939,3.547 3.726,-0.183 7.35,3.223 11.17,1.15 7.354,-1.98 -14.382,-2.937 -8.684,-6.451 -6.73,1.958 -11.7,-2.335 -15.012,-6.645 -7.548,-1.743 -16.276,-5.602 -20.043,-12.282 -1.536,-2.508 2.22,0.353 -1.326,-3.747 -4.548,-4.045 -6.82,-8.637 -9.872,-13.555 -3.648,-1.946 -4.073,-7.673 -4.442,-0.192 0.03,-4.722 -4.404,-7.9 -5.485,-6.578 -0.02,-4.548 4.743,-2.268 1.409,-5.633 -0.718,-4.713 -3.08,-9.624 -3.791,-14.945 -1.104,-2.565 -0.156,-8.059 -3.767,-2.252 -1.315,6.137 -0.436,-7.541 1.61,-3.03 2.685,-4.603 -0.965,-4.062 -1.114,-3.423 1.75,-3.883 1.107,-9.392 -0.457,-7.29 0.933,-4.116 1.473,-15.148 -1.395,-13.193 1.739,-4.304 3.297,-19.694 -4.25,-13.826 -3.058,0.043 -8.354,1.11 -10.857,2.355 7.85,4.327 -0.79,1.563 -3.985,0.875 -0.416,4.004 -3.581,2.272 -7.535,2.311 6.315,0.782 -3.075,6.46 -6.698,4.254 -4.705,2.249 4.06,7.862 0.094,9.597 0.487,2.617 -7.208,-0.945 -6.604,5.098 -4.568,-1.921 -0.629,7.168 1.656,4.094 7.77,2.103 5.47,6.896 5.667,11.45 -1.265,2.653 -6.25,-6.237 -1.11,-5.825 -4.054,-6.587 -4.485,-2.381 -7.854,0.679 -0.784,0.222 8.594,4.354 2.709,6.396 5.178,0.8 5.325,5.33 6.38,8.198 3.111,3.241 2.475,-3.58 6.198,0.316 -2.356,-3.47 -12.481,-9.778 -4.33,-7.755 -0.043,-3.493 -1.474,-6.31 1.024,-6.241 2.473,-4.48 -2.59,11.044 2.985,5.35 1.543,-0.673 1.925,-4.484 4.7,0.36 4.028,3.964 1.455,6.836 -4.229,3.207 1.017,3.45 7.603,4.682 6.365,10.077 1.313,4.744 3.148,2.997 4.748,2.722 1.256,4.61 1.968,1.22 2.028,-0.973 5.747,1.23 4.401,4.627 6.2,7.001 3.96,1.788 -5.67,-12.117 1.13,-4.181 7.154,6.459 2.683,9.155 -3.737,8.12 4.063,-0.328 5.374,5.493 10.456,5.289 4.635,2.204 7.772,10.672 -0.216,7.147 -2.77,-2.498 -12.576,-5.58 -4.567,-0.828 7.396,3.425 13.27,5.474 20.404,9.774 5.106,3.645 7.311,7.819 9.246,8.645 -4.29,2.05 -12.93,-1.636 -6.515,-2.766 -4.001,-0.729 -8.502,-2.752 -4.67,2.233 3.26,2.722 11.548,2.433 13.034,2.742 -1.26,2.775 -3.421,2.995 0.051,3.21 -3.874,2.065 1.242,2.385 1.601,3.564 z m -7.921,-22.37 c -2.357,-2.465 -2.966,-7.081 -0.419,-3.064 1.307,0.525 4.186,7.544 0.419,3.064 z m 25.797,16.387 c 1.47,-0.095 0.043,1.117 0,0 z m -29.519,-22.43 c -0.09,-3.727 0.853,2.874 0,0 z m -2.563,-3.45 c -2.965,-5.728 3.737,1.622 0,0 z M 61.562,103.644 c 1.741,-0.464 0.857,2.979 0,0 z m 24.728,13.404 c 1.07,-4.017 1.257,3.37 0,0 z M 68.82,104.9 c -1.231,-2.216 2.576,2.079 0,0 z m 14.993,4.806 c -2.808,-6.292 1.988,-3.437 0.621,1.032 l -0.62,-1.032 z M 57.958,92.464 c -1.256,-2.065 -3.333,-8.122 -2.664,-9.97 0.605,3.01 6.404,12.959 2.845,4.12 -3.934,-7.409 4.701,2.405 5.59,4.253 0.413,1.838 -2.427,-0.502 -0.503,3.808 -3.51,-4.907 -2.072,2.711 -5.268,-2.211 z m -7.99,-5.506 c 0.328,-4.8 1.829,3.29 0,0 z m 3.594,1.237 c 1.715,-3.623 2.908,5.05 0,0 z m -8.647,-6.689 c -2.975,-2.956 -5.127,-5.681 0.14,-1.834 2.03,0.079 -4.51,-6.197 0.488,-1.993 5.256,0.958 2.595,8.616 -0.628,3.827 z m 4.542,-0.118 c 1.728,-1.712 0.917,1.685 0,0 z m 2.795,0.896 c -2.62,-4.91 3.178,2.058 0,0 z m -5.556,-5.31 C 38.048,69.278 57.564,81 48.11,78.401 l -1.413,-1.426 z m 24.78,14.398 c -3.743,-2.244 -0.992,-15.798 0.284,-6.528 3.638,-1.177 -0.201,4.787 2.513,4.732 -0.428,3.763 -1.642,5.116 -2.798,1.796 z m 9.165,5.416 c 0.367,-4.084 0.772,2.793 0,0 z m -1.592,-1.573 c 0.412,-1.744 0.042,2.055 0,0 z M 48.393,74.445 C 42.837,66.78 64.54,82.2 51.95,76.39 50.635,76.046 49.052,75.923 48.392,74.445 Z m 17.649,9.358 c -0.526,-6.455 1.174,1.07 0,0 z m 13.4,8.596 c 1.037,-3.677 0.077,2.432 0,0 z M 49.244,71.519 c 3.302,-0.706 13.685,5.8 4.15,1.86 -1.06,-1.174 -3.318,-0.64 -4.15,-1.86 z M 77.6,85.654 c 0.353,-6.6 1.971,-3.942 0.012,0.945 z M 51.701,69.224 c 1.345,-1.973 -3.572,-8.923 0.709,-2.493 1.85,1.47 5.355,2.462 2.26,3.08 4.868,4.295 -1.187,1.164 -2.969,-0.587 z m 24.496,14.368 c 0.93,-7.518 0.82,4.405 0,0 z M 48.892,62.28 c 1.028,-0.44 0.543,1.37 0,0 z m 6.39,3.803 c 1.644,-3.45 3.033,3.848 0,0 z m 18.023,10.026 c -0.017,-1.325 0.34,1.928 0,0 z m -1.044,-2.311 c -2.502,-6.172 2.327,3.267 0,0 z m -1.536,-4.046 c -0.42,-2.55 1.427,3.203 0,0 z m 2.5,-4.064 c -1.717,-3.025 2.168,-13.331 2.601,-6.94 -1.812,4.98 -0.523,7.767 0.741,1.087 2.335,-5.257 -0.504,10.374 -3.342,5.853 z m 2.569,-15.327 c 0.748,-0.919 0.166,1.107 0,0 z m -4.29,84.535 c -1.018,-0.888 0.128,0.565 0,0 z m 8.837,4.47 c 4.916,1.262 4.891,-0.765 0.448,-1.367 -2.39,-2.223 -9.93,-4.58 -3.18,-0.275 0.446,1.132 1.859,1.105 2.732,1.642 z M 62.887,127.773 c 2.709,2.02 10.201,5.724 3.858,0.769 2.139,-2.485 -4.093,-3.807 -2.026,-5.47 -5.258,-3.217 -4.148,-2.93 -0.464,-2.83 -6.32,-2.824 0.912,-2.613 0.572,-4.06 -2.437,-0.481 -12.103,-4.297 -6.416,0.313 -5.781,-2.947 -1.378,1.098 -3.125,0.67 -5.912,-1.611 5.264,4.503 -0.94,2.985 3.392,2.688 9.13,6.884 1.435,2.844 -1.014,1.46 5.506,3.672 7.106,4.78 z m 9.243,5.31 c 11.24,3.622 -5.51,-4.424 0,0 z m 47.317,28.665 c 0.145,-2.23 -1.536,1.902 0,0 z m 4.863,2.047 c 2.593,-2.513 0.106,4.002 4.297,-0.616 0.045,-3.305 -0.13,-5.257 -4.816,-1.242 -1.292,0.716 -1.869,3.763 0.52,1.858 z M 47.112,115.31 c -0.797,-3.13 -5.582,-3.114 0,0 z m 5.193,3.403 c -1.929,-3.197 -6.88,-2.894 0,0 z m 29.543,17.817 c 2.884,2.562 13.248,1.88 3.503,0.316 -1.443,-2.134 -9.164,-1.62 -3.503,-0.316 z m 40.612,25.082 c 4.44,-3.725 -4.3,1.662 0,0 z m 9.233,6.345 c 0.028,-1.196 -1.913,0.523 0,0 z m 0.014,-1.674 c 4.916,-5.209 -4.763,0.308 0,0 z M 34.34,104.618 c -4.19,-5.978 -2.605,-8.665 -6.645,-13.546 -0.765,-3.733 -6.932,-12.204 -3.19,-3.23 3.428,5.249 4.446,13.375 9.835,16.776 z m 95.826,60.01 c 9.045,-5.846 -3.712,-2.546 0,0 z m 6.904,2.705 c 4.53,-3.889 -2.864,-0.814 0,0 z m -91.497,-58.63 c 1.296,-1.928 -3.347,-0.246 0,0 z m 90.056,56.783 c 4.385,-2.827 -1.01,-2.393 -0.795,0.26 z M 76.115,127.974 c -0.15,-1.909 -2.316,0.162 0,0 z m 3.678,2.117 c -1.169,-2.364 -1.797,0.37 0,0 z m 62.872,37.306 c 5.619,-4.053 -3.405,-0.776 -1.179,0.768 l 1.18,-0.768 z m -2.15,-1.04 c 4.576,-3.835 -4.833,1.7 0,0 z m 10.99,7.32 c 3.074,-2.058 -3.732,-0.666 0,0 z M 48.39,107.313 c 4.12,0.923 16.46,10.144 9.18,0.638 -3.73,-1.104 -1.493,-10.22 -5.296,-8.606 2.553,4.265 2.1,6.08 -3.26,3.391 -6.737,-3.288 -3.786,1.63 -2.47,2.985 -1.793,0.408 2.374,1.558 1.846,1.592 z M 29.625,92.493 c 0.737,-3.05 -6.79,-16.78 -3.555,-6.88 1.168,2.074 1.05,6.004 3.555,6.88 z m 34.443,21.235 c -2.121,-1.774 -0.1,-0.251 0,0 z m 5.223,1.215 c -0.003,-3.23 -5.773,-1.312 0,0 z m 45.261,28.533 c -0.863,-2.207 -3.412,-0.05 0,0 z m 2.174,1.588 c -0.32,-1.235 -1.254,0.239 0,0 z m 17.94,11.3 c 1.726,-1.275 -2.153,-0.163 0,0 z M 38.998,94.886 c 4.935,-1.911 -5.287,-1.363 0,0 z m 71.57,45.089 c -0.055,-3.195 -3.146,0.793 0,0 z M 37.048,90.342 c 3.17,-1.071 -2.932,-0.706 0,0 z m 9.202,4.457 c -0.058,-1.05 -0.973,0.398 0,0 z m 112.231,68.822 c 4.077,-0.827 13.366,2.075 14.868,-1.081 -4.95,-0.12 -17.128,-3.493 -17.704,0.805 l 1.084,0.17 z M 49.174,95.536 c 0.071,-3.238 -2.524,-0.12 0,0 z M 24.981,78.754 c -1.099,-6.169 -4.179,-0.934 0,0 z m 5.77,1.45 c 0.07,-1.98 -5.281,-1.782 0,0 z m 3.296,1.62 c -0.953,-0.773 -0.746,0.974 0,0 z M 54.792,95.13 c 0.977,-0.897 -2.312,-0.665 0,0 z M 31.852,78.17 c -0.558,-4.659 -6.683,-0.698 0,0 z M 20.024,70.496 c -0.169,-2.15 -1.153,0.81 0,0 z m 1.759,-1.329 c -0.287,-2.55 -1.51,0.324 0,0 z m 9.72,5.802 c 4.111,-1.614 -7.486,-3.34 -0.84,-0.305 z m 130.098,80.36 c 2.631,-2.413 -3.343,-0.746 0,0 z m 15.717,8.146 c 1.054,-3.118 -2.654,0.411 0,0 z m -144.82,-93.6 c 0.432,-3.017 -3.26,0.598 0,0 z M 18.667,60.608 c -0.743,-4.259 -0.641,-11.735 6.465,-9.208 -9.486,1.883 6.565,11.79 4.538,3.968 3.989,0.195 7.803,-2.357 5.71,1.516 7.859,-0.868 13.307,-7.682 20.898,-6.727 5.913,-0.783 12.378,-1.376 18.75,-3.756 5.24,-0.378 10.283,-6.018 7.411,-9.362 -7.145,-0.604 -14.623,0.29 -22.52,1.86 -8.75,1.818 -16.7,5.275 -25.528,6.758 -8.606,1.156 1.73,3.185 -0.734,3.637 -4.491,1.558 5.355,2.61 -0.583,4.252 -3.667,-0.697 -7.483,-1.957 -5.917,-5.822 -8.244,1.07 -15.488,4.491 -8.975,12.88 z M 38.53,50.492 c 1.933,-7.12 10.355,5.86 3.168,0.946 -0.858,-0.642 -2.27,-1.166 -3.168,-0.946 z m 0.376,-3.452 c 2.79,-2.078 1.483,1.165 0,0 z m 3.542,0.056 c 0.252,-3.276 8.11,1.735 1.296,1.18 z m 4.846,-1.948 c 1.77,-2.067 0.508,1.84 0,0 z m 1.24,-0.83 c 2.946,-3.54 16.685,-2.26 6.628,-0.345 -2.695,-2.03 -4.761,1.197 -6.629,0.345 z m 17.93,-2.764 c -0.449,-9.67 8.907,3.437 0,0 z m 5.087,-0.027 c 1.86,-4.874 7.218,-1.956 0.86,-0.98 0.139,0.519 -0.186,2.516 -0.86,0.98 z m -41.06,25.847 c 5.558,-3.403 -5.9,-2.953 0,0 z m 4.11,1.142 c 1.948,-2.072 -4.235,-0.84 0,0 z M 22.493,59.923 c 3.175,-2.44 -3.758,-0.928 0,0 z m 164.102,102.662 c 0.092,-2.83 -2.427,1.276 0,0 z m -16.675,-11.38 c 0.474,-3.258 -2.143,0.285 0,0 z m 21.26,12.478 c 4.44,0.015 13.453,-1.38 3.792,-1.375 -1.515,0.237 -8.833,0.186 -3.792,1.374 z M 38.215,66.518 c 3.593,-0.246 5.622,-3.963 -0.695,-3.75 -9.79,-1.013 8.637,3.353 -1.256,2.104 -1.33,0.88 1.874,1.89 1.95,1.646 z m 3.164,1.602 c -0.375,-2.307 -1.11,1.226 0,0 z m 3.754,-10.01 c 1.56,-1.934 -2.157,-0.517 0,0 z M 33.183,38.135 c 6.413,-2.182 15.183,-4.633 18.21,1.074 -3.081,-3.709 -1.243,-7.36 1.667,-1.937 4.116,5.486 6.176,-2.496 3.5,-4.336 3.05,3.79 6.52,5.581 2.042,0.24 4.866,-5.853 -9.743,0.766 -13.063,0.7 -1.598,0.716 -16.494,3.798 -12.356,4.259 z m 3.759,-7.198 c 3.657,-2.76 12.648,1.642 6.879,-2.743 -0.565,-0.498 -12.636,3.325 -6.88,2.743 z m 13.333,0.55 c 4.28,0.11 -1.846,-5.75 3.254,-3.095 -0.837,-2.736 -5.938,-3.248 -8.432,-4.342 -1.41,2.502 2.871,7.471 5.178,7.438 z M 39.279,19.385 c 1.481,-2.007 -2.595,1.018 0,0 z m 5.45,1.305 c 6.898,-0.915 -1.758,-2.971 -1.39,-0.074 z M 34.554,12.727 c -4.857,-6.34 9.134,1.066 4.199,-5.572 -4.153,-3.307 -8.144,3.722 -4.2,5.572 z M 96.884,46.3 c 2.227,-3.949 -9.197,-5.323 -1.501,-1.4 0.708,0.237 0.548,1.673 1.5,1.4 z"
     id="path1"
     clip-path="url(#clipPath3)"
     transform="translate(-1.370367,3.9086514)"
     style="fill:#000000;fill-opacity:1" />
</svg>
