<?xml version="1.0" encoding="UTF-8" standalone="no"?>
<svg
   viewBox="0 0 505.22623 260.19028"
   fill-rule="evenodd"
   clip-rule="evenodd"
   stroke-linejoin="round"
   stroke-miterlimit="2"
   version="1.1"
   id="svg4"
   sodipodi:docname="materialize-css-logo-icon.svg"
   width="505.22623"
   height="260.19028"
   inkscape:version="1.3.2 (091e20ef0f, 2023-11-25, custom)"
   xmlns:inkscape="http://www.inkscape.org/namespaces/inkscape"
   xmlns:sodipodi="http://sodipodi.sourceforge.net/DTD/sodipodi-0.dtd"
   xmlns="http://www.w3.org/2000/svg"
   xmlns:svg="http://www.w3.org/2000/svg">
  <defs
     id="defs4" />
  <sodipodi:namedview
     id="namedview4"
     pagecolor="#ffffff"
     bordercolor="#000000"
     borderopacity="0.25"
     inkscape:showpageshadow="2"
     inkscape:pageopacity="0.0"
     inkscape:pagecheckerboard="0"
     inkscape:deskcolor="#d1d1d1"
     inkscape:zoom="1.5722656"
     inkscape:cx="254.72795"
     inkscape:cy="130.06708"
     inkscape:window-width="1920"
     inkscape:window-height="1009"
     inkscape:window-x="0"
     inkscape:window-y="0"
     inkscape:window-maximized="1"
     inkscape:current-layer="svg4" />
  <g
     transform="matrix(3.94708,0,0,3.9766,0,-124.40793)"
     id="g4">
    <clipPath
       id="prefix__a">
      <path
         d="M 0,0 H 128 V 128 H 0 Z"
         id="path1" />
    </clipPath>
    <g
       clip-path="url(#prefix__a)"
       fill-rule="nonzero"
       id="g3">
      <path
         d="M 52.106,31.332 C 41.416,34.146 35.729,50.606 43.683,59.05 l 0.107,0.7 c 0.243,1.965 0.703,3.893 1.053,5.857 0.77,3.861 1.507,7.723 2.316,11.583 1.087,4.946 2.138,9.893 3.892,14.669 0.494,1.332 1.056,2.665 1.933,3.785 0.488,0.562 1.087,1.194 1.929,1.017 13.134,-9.982 9.07,-17.77 8.718,-26.854 l 0.906,0.237 -1.168,-5.589 A 527.431,527.431 0 0 0 60.945,51.998 c -1.05,-4.915 -2.104,-9.825 -3.646,-14.6 -0.455,-1.264 -0.948,-2.521 -1.578,-3.684 -0.455,-1.017 -1.303,-1.857 -2.281,-2.382 z m 40.177,0 c -11.202,3.79 -17.397,14.315 -8.42,27.902 l 0.11,0.581 a 0.263,0.263 0 0 1 0.028,0.114 l 0.133,0.72 c 1.667,8.984 3.23,17.97 5.623,26.789 0.77,2.457 1.433,4.947 2.735,7.19 0.632,0.916 1.371,2.14 2.666,2.002 12.193,0.031 12.751,-14.337 9.439,-26.195 l -0.358,-2.615 a 94.12,94.12 0 0 0 -0.343,-1.896 c -0.985,-5.47 -2.034,-10.98 -3.192,-16.422 -0.877,-4.03 -1.825,-8.104 -3.126,-12.034 -0.525,-1.435 -1.05,-2.946 -1.895,-4.28 -0.525,-0.739 -1.087,-1.438 -1.896,-1.856 z M 1.226,66.384 c -0.423,0 -0.84,0.07 -1.226,0.102 1.087,0.246 2.104,0.846 3.014,1.51 1.196,1.055 2.111,2.387 2.845,3.79 1.23,2.313 2.033,4.809 2.703,7.336 1.295,5.048 1.541,10.38 3.646,15.19 0.422,0.737 0.846,1.546 1.579,2 0.214,0.14 0.422,0.319 0.669,0.28 25.666,-0.743 16.07,-18.685 8.484,-27.695 l -0.206,-0.232 c -0.663,-0.846 -1.543,-1.548 -2.523,-1.933 -0.706,-0.315 -1.438,-0.247 -2.14,-0.348 H 1.226 Z"
         fill="#f6a2ad"
         id="path2" />
      <path
         d="m 34.07,31.285 c -0.176,0 -0.352,0.009 -0.526,0.047 -0.877,0.385 -1.472,1.156 -1.933,1.927 -0.803,1.403 -1.365,2.95 -1.858,4.454 -1.017,3.159 -1.787,6.425 -2.559,9.653 -0.947,4.14 -1.792,8.347 -2.596,12.523 -0.492,2.843 -1.127,5.687 -1.549,8.531 -0.35,2.56 -0.948,5.084 -1.473,7.643 -0.84,3.86 -1.68,7.758 -2.772,11.582 -0.701,2.388 -1.435,4.771 -2.597,6.984 a 6.102,6.102 0 0 1 -1.718,1.964 c 1.054,0.106 2.07,-0.002 3.126,0.037 h 15.436 c 0.385,0.031 0.669,-0.247 0.915,-0.493 1.119,-1.017 1.68,-2.49 2.281,-3.86 1.259,-3.329 2.106,-6.775 2.909,-10.21 1.723,-7.476 3.089,-14.982 4.42,-22.526 0.424,-2.28 0.879,-4.597 1.372,-6.91 1.087,-5.093 2.174,-10.178 3.754,-15.126 0.562,-1.612 1.156,-3.262 2.072,-4.74 0.316,-0.594 0.801,-1.048 1.332,-1.47 H 34.598 c -0.177,0 -0.352,-0.01 -0.528,-0.01 z m 49.035,0.033 c -3.07,-0.005 -6.14,-0.005 -9.208,0.014 -1.23,0.418 -1.895,1.61 -2.457,2.666 -1.439,2.983 -2.248,6.242 -2.981,9.47 -1.789,7.404 -3.197,14.88 -4.53,22.386 -1.119,5.825 -2.211,11.65 -3.613,17.407 -0.772,3.09 -1.545,6.21 -2.702,9.192 -0.632,1.51 -1.262,3.158 -2.564,4.208 0.316,0.037 0.67,0.037 0.986,0.037 5.858,0 11.72,0.039 17.577,0 0.878,-0.422 1.441,-1.332 1.933,-2.173 0.98,-1.863 1.612,-3.86 2.207,-5.826 0.948,-3.196 1.686,-6.455 2.388,-9.684 a 524.036,524.036 0 0 0 3.72,-19.403 c 1.194,-6.597 2.49,-13.16 4.316,-19.58 0.702,-2.35 1.402,-4.702 2.596,-6.844 0.385,-0.7 0.981,-1.3 1.543,-1.856 -3.07,0 -6.141,-0.01 -9.211,-0.014 z m 42.248,35.056 c -0.886,0.009 -1.773,0.026 -2.648,0.01 h -12.666 c -1.472,-0.07 -2.913,0.632 -3.899,1.72 -0.595,0.561 -0.91,1.366 -1.365,1.997 -0.564,0.777 -0.773,1.719 -1.088,2.597 -0.985,3.127 -1.617,6.387 -2.142,9.615 a 54.775,54.775 0 0 1 -1.788,7.507 c -0.563,1.826 -1.301,3.614 -2.457,5.124 -0.563,0.738 -1.301,1.262 -2.142,1.649 0.354,0.068 0.741,0.068 1.125,0.068 5.788,-0.033 11.575,0.039 17.4,-0.031 1.863,-1.472 2.95,-3.683 3.652,-5.894 1.054,-3.16 1.054,-6.528 1.542,-9.755 0.492,-3.298 1.087,-6.667 2.773,-9.617 a 10.308,10.308 0 0 1 4.63,-4.176 c 0.563,-0.278 1.195,-0.419 1.72,-0.77 a 38.824,38.824 0 0 0 -2.647,-0.044 z"
         fill="#eb7077"
         id="path3" />
    </g>
  </g>
</svg>
